<svg width="1920" height="467" viewBox="0 0 1920 467" fill="none" xmlns="http://www.w3.org/2000/svg">
<mask id="mask0_2_15415" style="mask-type:alpha" maskUnits="userSpaceOnUse" x="0" y="0" width="1920" height="467">
<rect width="1920" height="467" fill="#E3F1E9"/>
</mask>
<g mask="url(#mask0_2_15415)">
<path d="M671.647 211.194C663.45 207.078 652.774 205.674 643.788 207.43C637.601 208.644 629.217 212.32 629.705 219.943C630.14 226.621 637.476 230.513 643.362 231.325C649.975 232.227 657.252 231.416 663.45 228.879C666.505 227.63 669.6 225.782 671.504 222.982C673.509 220.044 673.725 216.65 672.747 213.292C672.217 211.466 669.509 212.623 670.024 214.431C673.506 226.466 654.17 229.073 646.323 228.656C641.276 228.384 634.915 226.658 632.975 221.304C630.757 215.21 638.589 211.517 643.236 210.549C652.15 208.699 662.407 209.833 670.589 213.931C672.262 214.775 673.353 212.042 671.647 211.194Z" fill="#DDDDDD"/>
<path d="M670.714 213.324C664.302 215.969 657.27 216.558 650.446 217.374C648.557 217.594 648.967 220.529 650.841 220.291C657.905 219.437 665.199 218.763 671.84 216.029C673.587 215.322 672.465 212.584 670.714 213.324Z" fill="#DDDDDD"/>
<path d="M675.362 234.273C671.451 238.25 667.661 242.343 664.11 246.666C660.049 251.598 655.58 257.116 653.629 263.297C652.942 265.476 652.552 267.96 653.615 270.087C654.786 272.429 657.347 273.417 659.806 273.737C663.667 274.248 667.885 273.764 671.304 271.872C675.226 269.708 678.19 266.2 680.294 262.318C684.789 254.003 686.159 241.645 678.329 234.824C676.906 233.575 675.154 235.958 676.562 237.188C682.682 242.507 681.574 252.331 678.657 258.997C677.048 262.672 674.611 266.127 671.308 268.435C668.335 270.516 664.77 271.148 661.192 270.924C660.028 270.847 658.805 270.696 657.746 270.179C657.08 269.862 656.524 269.34 656.294 268.893C655.546 267.475 655.947 265.58 656.541 263.892C658.44 258.409 662.323 253.556 665.923 249.104C668.057 246.484 670.281 243.941 672.549 241.455C673.439 240.492 674.329 239.528 675.252 238.569C675.654 238.166 676.022 237.759 676.424 237.356C676.77 236.996 677.038 236.727 677.172 236.593C678.478 235.245 676.686 232.911 675.362 234.273Z" fill="#DDDDDD"/>
<path d="M676.352 236.729C674.31 242.833 671.09 248.421 668.335 254.185C667.52 255.895 670.253 256.988 671.068 255.277C673.823 249.514 677.043 243.925 679.085 237.822C679.69 236.035 676.943 234.924 676.352 236.729Z" fill="#DDDDDD"/>
<path d="M644.116 241.276C636.4 241.295 627.869 241.531 621.007 245.513C616.817 247.946 612.364 251.839 610.713 256.532C610.013 258.542 609.943 260.747 611.16 262.574C612.561 264.676 615.102 265.56 617.456 266.053C623.606 267.316 629.817 264.261 634.403 260.384C639.419 256.141 643.782 250.257 645.27 243.75C645.681 241.906 642.756 241.561 642.363 243.391C641.292 248.138 638.186 252.534 634.844 255.977C631.216 259.705 626.454 262.973 621.123 263.37C617.771 263.626 612.022 262.379 613.362 257.899C614.514 253.984 618.302 250.729 621.603 248.571C627.963 244.444 636.409 244.214 643.739 244.198C645.618 244.196 645.994 241.274 644.116 241.276Z" fill="#DDDDDD"/>
<path d="M641.628 242.683C637.287 246.071 632.621 248.965 628.28 252.353C626.796 253.511 628.588 255.845 630.091 254.673C634.432 251.285 639.098 248.391 643.438 245.003C644.941 243.831 643.13 241.511 641.628 242.683Z" fill="#DDDDDD"/>
<path d="M1249.93 263.054C1261.56 280.9 1284.81 297.579 1310.71 292.927C1311.42 292.804 1311.86 292.118 1311.82 291.52C1311.39 285.154 1307.32 279.535 1303.59 274.647C1299.13 268.799 1294.18 263.788 1287.57 259.874C1281.48 256.263 1275.13 254.307 1267.5 253.897C1263.68 253.684 1259.81 253.777 1255.94 253.944C1254.22 254.026 1252.47 254.117 1250.74 254.224C1249.52 254.298 1248.09 254.119 1246.94 254.675C1246.27 255.002 1246.04 255.686 1246.26 256.234C1247.17 258.687 1248.75 260.754 1249.93 263.054C1250.59 264.32 1252.95 263.199 1252.28 261.917C1251.1 259.617 1249.52 257.549 1248.6 255.122C1248.37 255.65 1248.13 256.178 1247.91 256.681C1248.68 256.308 1250.87 256.516 1251.85 256.462C1253.47 256.368 1255.11 256.291 1256.72 256.222C1260.2 256.082 1263.7 256.015 1267.14 256.213C1274.48 256.62 1280.51 258.575 1286.36 262.082C1292.47 265.741 1297.02 270.393 1301.19 275.786C1304.82 280.466 1308.86 285.939 1309.29 292.092C1309.66 291.615 1310.02 291.162 1310.4 290.685C1297.92 292.918 1286.02 289.526 1276.21 284.031C1266.44 278.559 1258.13 270.891 1252.27 261.901C1251.5 260.731 1249.14 261.852 1249.93 263.054Z" fill="#DDDDDD"/>
<path d="M1249.41 257.899C1261.09 262.229 1272 267.845 1282.36 274.101C1286.82 276.796 1291.43 279.262 1295.99 281.829C1300.75 284.517 1305.55 287.442 1308.73 291.708C1309.59 292.857 1311.61 291.227 1310.75 290.077C1307.68 285.978 1303.12 283.034 1298.55 280.41C1293.69 277.611 1288.72 275.007 1283.93 272.114C1273.38 265.751 1262.29 260.104 1250.41 255.692C1248.94 255.155 1247.98 257.384 1249.41 257.899Z" fill="#DDDDDD"/>
<path d="M1303.08 288.617C1290.49 284.608 1277.52 280.741 1267.22 273.209C1266.03 272.338 1264.49 274.332 1265.68 275.203C1276.13 282.843 1289.31 286.782 1302.09 290.839C1303.58 291.311 1304.55 289.097 1303.08 288.617Z" fill="#DDDDDD"/>
<path d="M1293.12 271.571C1287.31 267.192 1280.43 264.398 1273.42 261.71C1271.99 261.154 1271.03 263.383 1272.45 263.923C1279.29 266.554 1285.94 269.301 1291.59 273.556C1292.75 274.462 1294.28 272.452 1293.12 271.571Z" fill="#DDDDDD"/>
<path d="M1266.53 268.588C1264.05 266.719 1261.84 264.557 1259.14 262.912C1258.61 262.576 1257.77 262.805 1257.36 263.342C1256.92 263.888 1257.06 264.596 1257.61 264.922C1260.31 266.568 1262.52 268.729 1265 270.598C1265.5 270.968 1266.4 270.671 1266.79 270.168C1267.22 269.581 1267.02 268.967 1266.53 268.588Z" fill="#DDDDDD"/>
<path d="M1246.3 234.699C1266.35 244.864 1296.68 249.107 1318.97 234.554C1319.61 234.146 1319.51 233.362 1319.2 232.917C1315.54 227.697 1308.67 224.641 1302.61 222.088C1295.91 219.269 1289.23 217.214 1281.56 216.584C1273.87 215.947 1266.75 216.72 1259.15 219.469C1255.24 220.886 1251.44 222.626 1247.67 224.446C1246 225.256 1244.32 226.092 1242.65 226.918C1241.47 227.507 1240.02 227.954 1239.17 228.938C1238.84 229.315 1238.8 230.031 1239.18 230.341C1241.33 232.095 1243.93 233.211 1246.3 234.699C1247.57 235.493 1249.11 233.499 1247.84 232.705C1245.66 231.323 1243.18 230.308 1241.18 228.72C1241.18 229.196 1241.19 229.647 1241.18 230.123C1241.72 229.507 1244.09 228.696 1245.01 228.25C1246.59 227.47 1248.16 226.689 1249.74 225.941C1253.14 224.319 1256.57 222.777 1260.11 221.501C1267.38 218.874 1274.27 218.309 1281.59 218.947C1288.89 219.594 1295.27 221.656 1301.65 224.374C1307.35 226.805 1313.73 229.679 1317.17 234.573C1317.25 234.019 1317.32 233.491 1317.4 232.937C1306.67 239.931 1293.65 241.952 1281.59 241.391C1269.58 240.828 1257.88 237.812 1247.85 232.721C1246.49 232.03 1244.95 234.025 1246.3 234.699Z" fill="#DDDDDD"/>
<path d="M1242.9 230.601C1256.56 229.379 1270.08 229.592 1283.43 230.617C1288.93 231.045 1294.49 231.152 1300.01 231.432C1305.55 231.719 1311.3 232.185 1316.16 234.31C1317.54 234.91 1319.09 232.932 1317.7 232.316C1308.16 228.139 1296.29 229.309 1285.61 228.453C1271.67 227.316 1257.53 227.01 1243.25 228.294C1241.63 228.445 1241.28 230.752 1242.9 230.601Z" fill="#DDDDDD"/>
<path d="M1309.43 234.161C1295.6 235.983 1281.42 238.108 1268 236.085C1266.45 235.847 1265.46 238.069 1267.03 238.298C1280.91 240.398 1295.43 238.281 1309.75 236.404C1311.39 236.187 1311.05 233.953 1309.43 234.161Z" fill="#DDDDDD"/>
<path d="M1291.74 224.04C1284.02 222.764 1276.14 223.211 1268.11 223.847C1266.48 223.981 1266.14 226.288 1267.77 226.153C1275.55 225.538 1283.26 225.033 1290.77 226.253C1292.33 226.507 1293.3 224.294 1291.74 224.04Z" fill="#DDDDDD"/>
<path d="M1265.03 232.489C1261.63 231.936 1258.35 231.024 1254.86 230.754C1254.21 230.711 1253.49 231.295 1253.41 231.89C1253.34 232.559 1253.81 233.004 1254.49 233.07C1255.36 233.128 1256 233.212 1256.78 233.331C1257.61 233.464 1258.43 233.623 1259.25 233.781C1260.84 234.099 1262.4 234.452 1264.02 234.72C1264.65 234.83 1265.43 234.571 1265.67 233.919C1265.93 233.357 1265.71 232.612 1265.03 232.489Z" fill="#DDDDDD"/>
</g>
</svg>
