<svg xmlns="http://www.w3.org/2000/svg" width="19" height="19" viewBox="0 0 19 18" fill="none">
    <path d="M8.76839 3.09367C9.07599 2.18997 10.3541 2.18998 10.6617 3.09367L11.6452 5.98313C11.7832 6.3884 12.1638 6.66091 12.5919 6.66091H15.6721C16.6521 6.66091 17.0472 7.92416 16.242 8.48263L13.8313 10.1546C13.4644 10.409 13.3106 10.8758 13.4545 11.2985L14.394 14.0586C14.7048 14.9718 13.6701 15.7523 12.8774 15.2025L10.2849 13.4046C9.9422 13.1668 9.48791 13.1668 9.14516 13.4046L6.55269 15.2025C5.76002 15.7523 4.72529 14.9718 5.03613 14.0586L5.97561 11.2985C6.11948 10.8758 5.96572 10.409 5.59884 10.1546L3.1881 8.48263C2.38287 7.92416 2.77805 6.66091 3.758 6.66091H6.83821C7.26631 6.66091 7.64692 6.3884 7.78487 5.98313L8.76839 3.09367Z" fill="#FFA858"/>
</svg>